
<svg width="256" height="256" viewBox="0 0 256 256" fill="none" xmlns="http://www.w3.org/2000/svg">
<circle cx="128" cy="128" r="120" stroke="#FFAC4A" strokeWidth="16"/>
<mask id="path-2-outside-1_232_3" maskUnits="userSpaceOnUse" x="88" y="77" width="83" height="111" fill="black">
<rect fill="white" x="88" y="77" width="83" height="111"/>
<path d="M136.351 186.92C129.845 186.92 123.765 185.747 118.111 183.4C112.565 180.947 107.658 177.427 103.391 172.84C99.2313 168.147 95.9246 162.44 93.4713 155.72C91.1246 149 89.9513 141.373 89.9513 132.84C89.9513 121.427 92.0313 111.667 96.1913 103.56C100.351 95.3467 106.005 89.1067 113.151 84.84C120.298 80.4667 128.458 78.28 137.631 78.28C144.031 78.28 149.738 79.6133 154.751 82.28C159.765 84.84 163.871 87.8267 167.071 91.24L158.111 101.32C155.445 98.44 152.405 96.2 148.991 94.6C145.685 93 141.898 92.2 137.631 92.2C131.445 92.2 126.005 93.8533 121.311 97.16C116.618 100.36 112.938 104.947 110.271 110.92C107.711 116.893 106.431 124.04 106.431 132.36C106.431 140.68 107.711 147.88 110.271 153.96C112.938 160.04 116.618 164.733 121.311 168.04C126.111 171.347 131.658 173 137.951 173C142.538 173 146.645 172.04 150.271 170.12C153.898 168.093 157.258 165.373 160.351 161.96L169.311 171.72C165.258 176.52 160.511 180.253 155.071 182.92C149.631 185.587 143.391 186.92 136.351 186.92Z"/>
</mask>
<path d="M136.351 186.92C129.845 186.92 123.765 185.747 118.111 183.4C112.565 180.947 107.658 177.427 103.391 172.84C99.2313 168.147 95.9246 162.44 93.4713 155.72C91.1246 149 89.9513 141.373 89.9513 132.84C89.9513 121.427 92.0313 111.667 96.1913 103.56C100.351 95.3467 106.005 89.1067 113.151 84.84C120.298 80.4667 128.458 78.28 137.631 78.28C144.031 78.28 149.738 79.6133 154.751 82.28C159.765 84.84 163.871 87.8267 167.071 91.24L158.111 101.32C155.445 98.44 152.405 96.2 148.991 94.6C145.685 93 141.898 92.2 137.631 92.2C131.445 92.2 126.005 93.8533 121.311 97.16C116.618 100.36 112.938 104.947 110.271 110.92C107.711 116.893 106.431 124.04 106.431 132.36C106.431 140.68 107.711 147.88 110.271 153.96C112.938 160.04 116.618 164.733 121.311 168.04C126.111 171.347 131.658 173 137.951 173C142.538 173 146.645 172.04 150.271 170.12C153.898 168.093 157.258 165.373 160.351 161.96L169.311 171.72C165.258 176.52 160.511 180.253 155.071 182.92C149.631 185.587 143.391 186.92 136.351 186.92Z" fill="#FFAC4A"/>
<path d="M118.111 183.4L117.707 184.315L117.717 184.319L117.728 184.324L118.111 183.4ZM103.391 172.84L102.643 173.503L102.651 173.512L102.659 173.521L103.391 172.84ZM93.4713 155.72L92.5271 156.05L92.5319 156.063L93.4713 155.72ZM96.1913 103.56L97.081 104.017L97.0833 104.012L96.1913 103.56ZM113.151 84.84L113.664 85.6987L113.673 85.693L113.151 84.84ZM154.751 82.28L154.282 83.1629L154.289 83.1668L154.296 83.1706L154.751 82.28ZM167.071 91.24L167.819 91.9044L168.425 91.222L167.801 90.5561L167.071 91.24ZM158.111 101.32L157.377 101.999L158.126 102.808L158.859 101.984L158.111 101.32ZM148.991 94.6L148.556 95.5002L148.567 95.5055L148.991 94.6ZM121.311 97.16L121.875 97.9862L121.881 97.9819L121.887 97.9775L121.311 97.16ZM110.271 110.92L109.358 110.512L109.355 110.519L109.352 110.526L110.271 110.92ZM110.271 153.96L109.35 154.348L109.352 154.355L109.355 154.362L110.271 153.96ZM121.311 168.04L120.735 168.858L120.744 168.864L121.311 168.04ZM150.271 170.12L150.739 171.004L150.749 170.998L150.759 170.993L150.271 170.12ZM160.351 161.96L161.088 161.284L160.346 160.476L159.61 161.288L160.351 161.96ZM169.311 171.72L170.075 172.365L170.643 171.692L170.048 171.044L169.311 171.72ZM155.071 182.92L154.631 182.022L154.631 182.022L155.071 182.92ZM136.351 185.92C129.968 185.92 124.019 184.77 118.495 182.476L117.728 184.324C123.51 186.724 129.721 187.92 136.351 187.92V185.92ZM118.516 182.485C113.097 180.089 108.301 176.65 104.123 172.159L102.659 173.521C107.015 178.204 112.032 181.805 117.707 184.315L118.516 182.485ZM104.14 172.177C100.074 167.589 96.8269 161.996 94.4106 155.377L92.5319 156.063C95.0222 162.884 98.3888 168.704 102.643 173.503L104.14 172.177ZM94.4153 155.39C92.1122 148.795 90.9513 141.283 90.9513 132.84H88.9513C88.9513 141.464 90.137 149.205 92.5272 156.05L94.4153 155.39ZM90.9513 132.84C90.9513 121.546 93.0094 111.951 97.0809 104.017L95.3016 103.103C91.0531 111.383 88.9513 121.307 88.9513 132.84H90.9513ZM97.0833 104.012C101.167 95.9487 106.697 89.8582 113.664 85.6986L112.639 83.9814C105.313 88.3551 99.5352 94.7446 95.2992 103.108L97.0833 104.012ZM113.673 85.693C120.648 81.4248 128.624 79.28 137.631 79.28V77.28C128.292 77.28 119.948 79.5085 112.629 83.987L113.673 85.693ZM137.631 79.28C143.889 79.28 149.43 80.5824 154.282 83.1629L155.221 81.3971C150.045 78.6442 144.174 77.28 137.631 77.28V79.28ZM154.296 83.1706C159.227 85.6884 163.235 88.61 166.342 91.9239L167.801 90.5561C164.508 87.0433 160.302 83.9915 155.206 81.3894L154.296 83.1706ZM166.324 90.5756L157.364 100.656L158.859 101.984L167.819 91.9044L166.324 90.5756ZM158.845 100.641C156.094 97.67 152.951 95.3515 149.416 93.6945L148.567 95.5055C151.859 97.0485 154.795 99.21 157.377 101.999L158.845 100.641ZM149.427 93.6998C145.964 92.0243 142.024 91.2 137.631 91.2V93.2C141.771 93.2 145.405 93.9757 148.556 95.5002L149.427 93.6998ZM137.631 91.2C131.255 91.2 125.61 92.9077 120.735 96.3425L121.887 97.9775C126.399 94.7989 131.634 93.2 137.631 93.2V91.2ZM120.748 96.3338C115.879 99.6532 112.089 104.396 109.358 110.512L111.184 111.328C113.787 105.497 117.356 101.067 121.875 97.9862L120.748 96.3338ZM109.352 110.526C106.726 116.653 105.431 123.941 105.431 132.36H107.431C107.431 124.139 108.696 117.133 111.19 111.314L109.352 110.526ZM105.431 132.36C105.431 140.78 106.726 148.118 109.35 154.348L111.193 153.572C108.696 147.642 107.431 140.58 107.431 132.36H105.431ZM109.355 154.362C112.084 160.582 115.871 165.43 120.735 168.857L121.887 167.223C117.365 164.036 113.792 159.498 111.187 153.558L109.355 154.362ZM120.744 168.864C125.724 172.294 131.472 174 137.951 174V172C131.844 172 126.498 170.399 121.879 167.216L120.744 168.864ZM137.951 174C142.682 174 146.952 173.009 150.739 171.004L149.803 169.236C146.337 171.071 142.394 172 137.951 172V174ZM150.759 170.993C154.49 168.908 157.934 166.117 161.092 162.632L159.61 161.288C156.582 164.63 153.306 167.279 149.783 169.247L150.759 170.993ZM159.615 162.636L168.575 172.396L170.048 171.044L161.088 161.284L159.615 162.636ZM168.547 171.075C164.58 175.773 159.942 179.419 154.631 182.022L155.511 183.818C161.08 181.088 165.936 177.267 170.075 172.365L168.547 171.075ZM154.631 182.022C149.349 184.612 143.263 185.92 136.351 185.92V187.92C143.519 187.92 149.914 186.562 155.511 183.818L154.631 182.022Z" fill="#FFAC4A" mask="url(#path-2-outside-1_232_3)"/>
</svg>
