<svg width="256" height="256" viewBox="0 0 256 256" fill="none" xmlns="http://www.w3.org/2000/svg">
<circle cx="128" cy="128" r="120" stroke="#00C8FF" strokeWidth="16"/>
<mask id="path-2-outside-1_229_10" maskUnits="userSpaceOnUse" x="89" y="79" width="78" height="107" fill="black">
<rect fill="white" x="89" y="79" width="78" height="107"/>
<path d="M90.9113 185V80.2H109.471L123.071 122.92L127.711 139.24H128.351L132.991 122.92L146.591 80.2H165.151V185H150.431V137.8C150.431 135.133 150.538 132.04 150.751 128.52C150.965 124.893 151.178 121.16 151.391 117.32C151.711 113.48 151.978 109.853 152.191 106.44C152.511 103.027 152.778 100.093 152.991 97.64H152.511L145.951 120.2L132.671 157.16H122.751L109.631 120.2L103.231 97.64H102.751C103.071 100.093 103.338 103.027 103.551 106.44C103.871 109.853 104.138 113.48 104.351 117.32C104.565 121.16 104.778 124.893 104.991 128.52C105.205 132.04 105.311 135.133 105.311 137.8V185H90.9113Z"/>
</mask>
<path d="M90.9113 185V80.2H109.471L123.071 122.92L127.711 139.24H128.351L132.991 122.92L146.591 80.2H165.151V185H150.431V137.8C150.431 135.133 150.538 132.04 150.751 128.52C150.965 124.893 151.178 121.16 151.391 117.32C151.711 113.48 151.978 109.853 152.191 106.44C152.511 103.027 152.778 100.093 152.991 97.64H152.511L145.951 120.2L132.671 157.16H122.751L109.631 120.2L103.231 97.64H102.751C103.071 100.093 103.338 103.027 103.551 106.44C103.871 109.853 104.138 113.48 104.351 117.32C104.565 121.16 104.778 124.893 104.991 128.52C105.205 132.04 105.311 135.133 105.311 137.8V185H90.9113Z" fill="#00C8FF"/>
<path d="M90.9113 185H89.9113V186H90.9113V185ZM90.9113 80.2V79.2H89.9113V80.2H90.9113ZM109.471 80.2L110.424 79.8966L110.202 79.2H109.471V80.2ZM123.071 122.92L124.033 122.647L124.029 122.632L124.024 122.617L123.071 122.92ZM127.711 139.24L126.749 139.513L126.956 140.24H127.711V139.24ZM128.351 139.24V140.24H129.107L129.313 139.513L128.351 139.24ZM132.991 122.92L132.038 122.617L132.034 122.632L132.029 122.647L132.991 122.92ZM146.591 80.2V79.2H145.86L145.638 79.8966L146.591 80.2ZM165.151 80.2H166.151V79.2H165.151V80.2ZM165.151 185V186H166.151V185H165.151ZM150.431 185H149.431V186H150.431V185ZM150.751 128.52L151.749 128.58L151.75 128.579L150.751 128.52ZM151.391 117.32L150.395 117.237L150.394 117.251L150.393 117.265L151.391 117.32ZM152.191 106.44L151.196 106.347L151.194 106.362L151.193 106.378L152.191 106.44ZM152.991 97.64L153.987 97.7266L154.082 96.64H152.991V97.64ZM152.511 97.64V96.64H151.761L151.551 97.3608L152.511 97.64ZM145.951 120.2L146.892 120.538L146.903 120.509L146.911 120.479L145.951 120.2ZM132.671 157.16V158.16H133.375L133.612 157.498L132.671 157.16ZM122.751 157.16L121.809 157.495L122.045 158.16H122.751V157.16ZM109.631 120.2L108.669 120.473L108.678 120.504L108.689 120.535L109.631 120.2ZM103.231 97.64L104.193 97.3671L103.987 96.64H103.231V97.64ZM102.751 97.64V96.64H101.612L101.76 97.7693L102.751 97.64ZM103.551 106.44L102.553 106.502L102.554 106.518L102.556 106.533L103.551 106.44ZM104.351 117.32L103.353 117.375L103.353 117.375L104.351 117.32ZM104.991 128.52L103.993 128.579L103.993 128.58L104.991 128.52ZM105.311 185V186H106.311V185H105.311ZM91.9113 185V80.2H89.9113V185H91.9113ZM90.9113 81.2H109.471V79.2H90.9113V81.2ZM108.518 80.5033L122.118 123.223L124.024 122.617L110.424 79.8966L108.518 80.5033ZM122.109 123.193L126.749 139.513L128.673 138.967L124.033 122.647L122.109 123.193ZM127.711 140.24H128.351V138.24H127.711V140.24ZM129.313 139.513L133.953 123.193L132.029 122.647L127.389 138.967L129.313 139.513ZM133.944 123.223L147.544 80.5033L145.638 79.8966L132.038 122.617L133.944 123.223ZM146.591 81.2H165.151V79.2H146.591V81.2ZM164.151 80.2V185H166.151V80.2H164.151ZM165.151 184H150.431V186H165.151V184ZM151.431 185V137.8H149.431V185H151.431ZM151.431 137.8C151.431 135.159 151.537 132.086 151.749 128.58L149.753 128.46C149.539 131.994 149.431 135.108 149.431 137.8H151.431ZM151.75 128.579C151.963 124.951 152.176 121.216 152.39 117.375L150.393 117.265C150.18 121.104 149.966 124.836 149.753 128.461L151.75 128.579ZM152.388 117.403C152.708 113.557 152.975 109.923 153.189 106.502L151.193 106.378C150.98 109.783 150.714 113.403 150.395 117.237L152.388 117.403ZM153.187 106.533C153.507 103.119 153.774 100.183 153.987 97.7266L151.995 97.5534C151.782 100.004 151.515 102.935 151.196 106.347L153.187 106.533ZM152.991 96.64H152.511V98.64H152.991V96.64ZM151.551 97.3608L144.991 119.921L146.911 120.479L153.471 97.9192L151.551 97.3608ZM145.01 119.862L131.73 156.822L133.612 157.498L146.892 120.538L145.01 119.862ZM132.671 156.16H122.751V158.16H132.671V156.16ZM123.694 156.825L110.574 119.865L108.689 120.535L121.809 157.495L123.694 156.825ZM110.593 119.927L104.193 97.3671L102.269 97.9129L108.669 120.473L110.593 119.927ZM103.231 96.64H102.751V98.64H103.231V96.64ZM101.76 97.7693C102.076 100.194 102.341 103.104 102.553 106.502L104.549 106.378C104.335 102.95 104.067 99.9928 103.743 97.5107L101.76 97.7693ZM102.556 106.533C102.874 109.933 103.14 113.547 103.353 117.375L105.35 117.265C105.136 113.413 104.868 109.774 104.547 106.347L102.556 106.533ZM103.353 117.375C103.566 121.216 103.78 124.951 103.993 128.579L105.99 128.461C105.776 124.836 105.563 121.104 105.35 117.265L103.353 117.375ZM103.993 128.58C104.206 132.086 104.311 135.159 104.311 137.8H106.311C106.311 135.108 106.204 131.994 105.989 128.46L103.993 128.58ZM104.311 137.8V185H106.311V137.8H104.311ZM105.311 184H90.9113V186H105.311V184Z" fill="#00C8FF" mask="url(#path-2-outside-1_229_10)"/>
</svg>
